<svg width="224" height="43" viewBox="0 0 224 43" fill="none" xmlns="http://www.w3.org/2000/svg">
<path d="M30.3745 37.2387C32.2203 37.4615 34.075 37.7759 35.9387 38.1865C37.1483 37.2431 38.21 36.173 39.1822 35.0156C38.7611 33.2073 38.4385 31.3904 38.21 29.5996C35.1099 32.146 32.4667 34.8146 30.3745 37.2387Z" fill="#B9975B"/>
<path d="M27.7132 4.94424C26.1856 3.02682 25.0656 1.35835 24.4428 0.157237C23.6454 0.0698832 22.8435 0 22.0864 0C21.3427 0 20.6035 0.0567801 19.8374 0.131031C19.2326 1.33215 18.0992 3.00934 16.576 4.94424C20.6259 5.28055 24.4563 5.21503 27.7132 4.94424Z" fill="#B9975B"/>
<path d="M6.14209 29.6086C5.83297 31.9454 5.42977 33.854 5.01761 35.16C6.00769 36.3305 7.09633 37.3962 8.30593 38.3309C9.65441 37.9247 11.5898 37.536 13.9821 37.2477C11.881 34.8193 9.23329 32.1463 6.14209 29.6086Z" fill="#B9975B"/>
<path d="M5.04 16.0732C3.48544 17.27 1.85472 18.4274 0.112 19.48C0.05376 20.1352 0 20.8078 0 21.4237C0 22.1181 0.05376 22.8301 0.1344 23.5551C1.87264 24.6077 3.50784 25.7695 5.08928 26.9619C5.36256 23.7866 5.41184 20.0304 5.04 16.0732Z" fill="#B9975B"/>
<path d="M9.5558 39.2219C12.0825 40.886 14.9408 42.0303 17.9155 42.5414C17.2121 41.3752 16.1772 39.9382 14.8646 38.344C12.7411 38.5755 10.9267 38.8856 9.5558 39.2219Z" fill="#B9975B"/>
<path d="M4.61437 30.784C4.72637 30.0895 4.82045 29.347 4.91005 28.5783C3.46749 27.4427 1.95325 26.3595 0.340454 25.3506C0.900454 28.3774 2.14589 31.2776 3.98717 33.8021C4.09917 33.4177 4.17981 33.0028 4.29181 32.5529C4.42173 31.9589 4.51581 31.3693 4.61437 30.784Z" fill="#B9975B"/>
<path d="M26.2124 42.6245C29.1244 42.0786 31.9065 40.9342 34.3705 39.3051C32.6412 38.9513 30.9119 38.6936 29.2095 38.4971C27.9372 40.0694 26.9202 41.4758 26.2124 42.6245Z" fill="#B9975B"/>
<path d="M16.7238 38.3094C18.1439 40.122 19.2102 41.69 19.8508 42.8649C20.6079 42.9479 21.3561 43.0003 22.0908 43.0003C22.9017 43.0003 23.7439 42.9348 24.5996 42.8343C25.2268 41.6638 26.2841 40.1132 27.6953 38.3356C23.6991 38.0036 19.9225 38.0604 16.7238 38.3094Z" fill="#B9975B"/>
<path d="M28.654 6.30664C26.6693 6.49445 24.4562 6.62548 22.0953 6.62548C20.03 6.62548 17.8482 6.52066 15.6261 6.31538C13.2921 9.0976 10.1561 12.2554 6.48694 15.1949C6.97526 19.8815 6.89014 24.3234 6.51382 27.9661C10.2322 30.9274 13.3951 34.1114 15.7561 36.9242C19.4386 36.5704 23.9186 36.4874 28.6271 36.9461C30.9791 34.1376 34.142 30.9579 37.8469 27.9923C37.3676 23.3057 37.4617 18.8463 37.8335 15.1949C34.1465 12.2554 31.0105 9.10197 28.654 6.30664ZM22.0863 35.7537C14.0133 35.7537 7.44566 29.3506 7.44566 21.4844C7.44566 13.6225 14.0133 7.22386 22.0863 7.22386C30.1413 7.22386 36.7045 13.6225 36.7045 21.4844C36.7045 29.3506 30.1413 35.7537 22.0863 35.7537Z" fill="#B9975B"/>
<path d="M3.9826 9.19434C2.1234 11.7713 0.855557 14.7326 0.313477 17.8162C0.438917 17.7332 0.568837 17.6502 0.694277 17.5628C1.61716 16.9994 2.49524 16.3748 3.36436 15.7546C3.893 15.379 4.39028 14.9728 4.90548 14.571C4.69044 12.8021 4.38132 10.9938 3.9826 9.19434Z" fill="#B9975B"/>
<path d="M38.1293 13.5486C38.4339 11.225 38.8371 9.34249 39.2582 8.06276C38.2816 6.87911 37.184 5.79156 35.9744 4.82629C34.6752 5.24559 32.7309 5.65179 30.3162 5.94879C32.4128 8.3685 35.0426 11.0153 38.1293 13.5486Z" fill="#B9975B"/>
<path d="M40.2348 9.34253C40.1408 9.70068 40.0377 10.1025 39.9526 10.5305C39.8048 11.1682 39.6793 11.8714 39.5673 12.6489C39.4688 13.2254 39.3926 13.8369 39.3164 14.4789C39.7196 14.8022 40.1228 15.1166 40.544 15.4267C41.552 16.1387 42.5824 16.8462 43.6934 17.5232C43.1424 14.61 41.9552 11.7972 40.2348 9.34253Z" fill="#B9975B"/>
<path d="M39.5224 29.7087C39.7285 31.0147 39.9256 32.3294 40.2482 33.6309C41.9461 31.2287 43.1243 28.4683 43.6933 25.6162C42.188 26.5771 40.7544 27.5991 39.3835 28.6605C39.4239 29.0143 39.4821 29.3593 39.5224 29.7087Z" fill="#B9975B"/>
<path d="M39.2403 26.9924C40.7277 25.8568 42.2823 24.7605 43.9354 23.756C44.0295 22.9654 44.0967 22.1792 44.0967 21.4236C44.0967 20.751 44.0295 20.0521 43.9443 19.3446C42.2778 18.34 40.7232 17.2306 39.209 16.0819C38.9402 19.266 38.8775 23.0266 39.2403 26.9924Z" fill="#B9975B"/>
<path d="M26.1497 0.380005C27.0233 1.73399 27.9372 3.0181 28.8646 4.23668C29.0214 4.42886 29.1603 4.60794 29.3171 4.80885C29.4335 4.79575 29.5366 4.79138 29.6486 4.77828C31.6108 4.54679 33.2774 4.24979 34.5452 3.91784C34.6035 3.90474 34.6438 3.90037 34.6975 3.88727C32.1439 2.13145 29.2006 0.925967 26.1497 0.380005Z" fill="#B9975B"/>
<path d="M6.1555 13.5093C9.23774 10.9717 11.8451 8.32484 13.9193 5.90951C11.9616 5.67365 9.97694 5.35481 8.00126 4.9093C6.94398 5.761 5.94942 6.70879 5.06686 7.75267L5.08926 7.74831C5.56414 9.6701 5.91358 11.5963 6.1555 13.5093Z" fill="#B9975B"/>
<path d="M9.60522 3.79068C11.4107 4.20998 13.243 4.52445 15.0529 4.75594C16.4686 3.0307 17.5303 1.51074 18.2292 0.318359C15.1515 0.855586 12.1857 2.03923 9.60522 3.79068Z" fill="#B9975B"/>
<path d="M74.2874 30.9928C72.715 34.8189 69.019 37.1469 64.6241 37.1469C58.5985 37.1469 54.0916 33.0019 54.0916 26.791C54.0916 20.6937 58.5985 16.5226 64.6241 16.5226C69.337 16.5226 72.7105 19.0209 74.0455 22.1394L70.0359 23.2183C69.1041 21.6852 67.33 20.2395 64.4494 20.2395C60.6951 20.2395 58.1639 22.8514 58.1639 26.8172C58.1639 30.8748 60.8385 33.4299 64.4225 33.4299C67.2986 33.4299 69.337 31.958 70.3002 29.9707L74.2874 30.9928Z" fill="#01426A"/>
<path d="M93.2021 28.1232C93.2021 33.9672 89.8824 37.1469 84.5825 37.1469C79.2334 37.1469 75.9451 33.9672 75.9451 28.1232V16.92H80.0488V28.0096C80.0488 31.7265 81.5585 33.4299 84.6139 33.4299C87.6737 33.4299 89.1835 31.7265 89.1835 28.0096V16.92H93.2021V28.1232Z" fill="#01426A"/>
<path d="M98.7034 30.705C99.0215 32.6617 100.796 33.6794 103.295 33.6794C105.504 33.6794 106.875 32.8582 106.875 31.216C106.875 28.8618 104.138 28.8924 101.606 28.294C98.8423 27.6694 95.3793 26.5076 95.3793 22.367C95.3793 18.5103 98.345 16.5187 102.83 16.5187C106.848 16.5187 109.756 18.1391 110.826 21.6289L106.956 22.6247C106.431 20.9519 105.096 20.0128 102.735 20.0128C100.495 20.0128 99.5054 20.8645 99.5054 22.2535C99.5054 24.2451 101.651 24.6077 104.514 25.1798C107.538 25.7476 110.974 26.8789 110.974 31.2204C110.974 35.1644 108.12 37.1517 103.286 37.1517C99.7966 37.1517 95.8094 36.0991 94.8238 31.7314L98.7034 30.705Z" fill="#01426A"/>
<path d="M132.075 30.9928C130.507 34.8189 126.811 37.1469 122.416 37.1469C116.391 37.1469 111.879 33.0019 111.879 26.791C111.879 20.6937 116.391 16.5226 122.416 16.5226C127.129 16.5226 130.507 19.0209 131.838 22.1394L127.824 23.2183C126.896 21.6852 125.122 20.2395 122.241 20.2395C118.483 20.2395 115.952 22.8514 115.952 26.8172C115.952 30.8748 118.631 33.4299 122.21 33.4299C125.091 33.4299 127.129 31.958 128.088 29.9707L132.075 30.9928Z" fill="#01426A"/>
<path d="M137.984 32.8059L136.443 36.7805H132.165L140.309 16.9249H144.879L153.028 36.7805H148.691L147.146 32.8059H137.984ZM144.037 24.861C143.333 23.1576 142.643 21.4018 142.607 21.3712H142.522C142.491 21.4018 141.792 23.1314 141.098 24.861L139.382 29.2287H145.721L144.037 24.861Z" fill="#01426A"/>
<path d="M160.922 20.5758V36.7756H156.867V20.5758H150.38V16.92H167.404V20.5758H160.922Z" fill="#01426A"/>
<path d="M169.326 16.92H173.372V33.1198H183.03V36.7756H169.326V16.92Z" fill="#01426A"/>
<path d="M189.603 32.8059L188.062 36.7805H183.788L191.932 16.9249H196.506L204.651 36.7805H200.314L198.773 32.8059H189.603ZM195.66 24.861C194.961 23.1576 194.266 21.4018 194.24 21.3712H194.145C194.119 21.4018 193.42 23.1314 192.725 24.861L191.009 29.2287H197.353L195.66 24.861Z" fill="#01426A"/>
<path d="M210.148 23.4978H210.058C210.058 23.5284 210.121 25.9131 210.121 28.4377V36.7756H206.08V16.92H210.179L219.928 29.9969H220.013C220.013 29.9664 219.955 27.503 219.955 25.3191V16.92H224V36.7756H219.896L210.148 23.4978Z" fill="#01426A"/>
<path d="M59.5975 9.1327C60.3143 9.21568 61.3044 9.71797 61.3044 10.8885C61.3044 12.0328 60.3994 12.8278 58.9031 12.8278H55.9911V5.83508H58.6925C59.9559 5.83508 60.8026 6.62127 60.8026 7.54722C60.8026 8.53432 60.2023 8.94488 59.593 9.09339V9.1327H59.5975ZM58.5537 8.89247C59.2973 8.89247 60.0948 8.49938 60.0948 7.63021C60.0948 6.96632 59.5169 6.44656 58.5716 6.44656H56.6989V8.89684H58.5537V8.89247ZM58.8852 12.2119C59.8439 12.2119 60.5741 11.7227 60.5741 10.871C60.5741 9.98876 59.7812 9.46464 58.8225 9.46464H56.6945V12.2119H58.8852Z" fill="#01426A"/>
<path d="M63.7504 10.7754L62.8947 12.8239H62.151L65.1885 5.83118H65.9904L69.0144 12.8239H68.2707L67.3971 10.7754H63.7504ZM66.3936 8.40375C65.8426 7.11965 65.6096 6.4776 65.5917 6.47323H65.5648C65.5648 6.48196 65.287 7.1808 64.7226 8.49111L64.0192 10.1639H67.1283L66.3936 8.40375Z" fill="#01426A"/>
<path d="M75.5508 12.8234L71.1156 6.88333H71.0887C71.0887 6.89643 71.1156 7.64331 71.1156 8.49064V12.8234H70.4122V5.83508H71.138L75.5508 11.7009H75.5732C75.5732 11.6922 75.5508 10.9671 75.5508 10.1678V5.83945H76.2631V12.8321H75.5508V12.8234Z" fill="#01426A"/>
<path d="M85.0081 10.9367C84.4078 12.164 83.1489 12.972 81.6033 12.972C79.4663 12.972 77.8401 11.4302 77.8401 9.32936C77.8401 7.23286 79.4663 5.69543 81.5899 5.69543C82.9742 5.69543 84.3316 6.33312 84.9454 7.75699L84.2689 7.9317C84.0897 7.63033 83.4222 6.34622 81.6302 6.34622C79.8561 6.34622 78.5659 7.55607 78.5659 9.33373C78.5659 11.1157 79.8695 12.33 81.6078 12.33C82.898 12.33 83.8478 11.653 84.3361 10.7576L85.0081 10.9367Z" fill="#01426A"/>
<path d="M89.8868 5.69543C91.9834 5.69543 93.6276 7.23286 93.6276 9.34246C93.6276 11.4346 91.9834 12.9764 89.8868 12.9764C87.7991 12.9764 86.1594 11.4346 86.1594 9.34246C86.1594 7.23286 87.7991 5.69543 89.8868 5.69543ZM89.8868 12.3256C91.5757 12.3256 92.9063 11.1157 92.9063 9.34246C92.9063 7.55607 91.5757 6.34622 89.8868 6.34622C88.1933 6.34622 86.8807 7.55607 86.8807 9.34246C86.8807 11.1157 88.1933 12.3256 89.8868 12.3256Z" fill="#01426A"/>
</svg>
